<svg xmlns="http://www.w3.org/2000/svg" viewBox="0 0 640 640" role="img" aria-labelledby="title desc">
  <title id="title">Palomitas sabor caramelo</title>
  <desc id="desc">Ilustracion de un vaso con palomitas gourmet sabor caramelo.</desc>
  <defs>
    <linearGradient id="bg" x1="0" x2="1" y1="0" y2="1">
      <stop offset="0%" stop-color="#fff5de"/>
      <stop offset="100%" stop-color="#ffd7a3"/>
    </linearGradient>
    <linearGradient id="cup" x1="0" x2="1" y1="0" y2="1">
      <stop offset="0%" stop-color="#ca5f2c"/>
      <stop offset="100%" stop-color="#8f3417"/>
    </linearGradient>
  </defs>
  <rect width="640" height="640" rx="84" fill="url(#bg)"/>
  <circle cx="180" cy="160" r="68" fill="#fff3d2" opacity="0.85"/>
  <circle cx="500" cy="134" r="52" fill="#ffd287" opacity="0.7"/>
  <g fill="#ffe6a7">
    <circle cx="238" cy="178" r="40"/>
    <circle cx="296" cy="136" r="48"/>
    <circle cx="360" cy="182" r="42"/>
    <circle cx="430" cy="148" r="50"/>
    <circle cx="212" cy="250" r="44"/>
    <circle cx="284" cy="242" r="46"/>
    <circle cx="358" cy="252" r="44"/>
    <circle cx="426" cy="230" r="42"/>
  </g>
  <g fill="#d88f3d">
    <circle cx="254" cy="168" r="12"/>
    <circle cx="330" cy="147" r="10"/>
    <circle cx="404" cy="169" r="11"/>
    <circle cx="226" cy="253" r="10"/>
    <circle cx="378" cy="232" r="12"/>
  </g>
  <path d="M208 270h236l-35 208c-4 26-26 46-53 46H296c-27 0-49-20-53-46l-35-208Z" fill="url(#cup)"/>
  <path d="M244 316h30v172h-30zm62 0h30v172h-30zm62 0h30v172h-30z" fill="#f7d8c1" opacity="0.85"/>
  <ellipse cx="326" cy="275" rx="128" ry="18" fill="#7c2d12" opacity="0.18"/>
</svg>